<svg width="164" height="164" viewBox="0 0 164 164" fill="none" xmlns="http://www.w3.org/2000/svg">
<path d="M81.9997 116.167C74.4147 116.167 68.333 110.017 68.333 102.5C68.333 94.915 74.4147 88.8333 81.9997 88.8333C85.6243 88.8333 89.1005 90.2732 91.6635 92.8362C94.2265 95.3992 95.6663 98.8754 95.6663 102.5C95.6663 106.125 94.2265 109.601 91.6635 112.164C89.1005 114.727 85.6243 116.167 81.9997 116.167ZM123 136.667V68.3333H40.9997V136.667H123ZM123 54.6667C126.624 54.6667 130.1 56.1065 132.663 58.6695C135.226 61.2325 136.666 64.7087 136.666 68.3333V136.667C136.666 140.291 135.226 143.767 132.663 146.33C130.1 148.893 126.624 150.333 123 150.333H40.9997C33.4147 150.333 27.333 144.183 27.333 136.667V68.3333C27.333 60.7483 33.4147 54.6667 40.9997 54.6667H47.833V41C47.833 31.9384 51.4327 23.248 57.8402 16.8405C64.2477 10.433 72.9381 6.83333 81.9997 6.83333C86.4865 6.83333 90.9294 7.71708 95.0747 9.43411C99.22 11.1511 102.986 13.6678 106.159 16.8405C109.332 20.0132 111.849 23.7797 113.566 27.925C115.283 32.0703 116.166 36.5132 116.166 41V54.6667H123ZM81.9997 20.5C76.5627 20.5 71.3485 22.6598 67.504 26.5043C63.6595 30.3488 61.4997 35.5631 61.4997 41V54.6667H102.5V41C102.5 35.5631 100.34 30.3488 96.4954 26.5043C92.6509 22.6598 87.4366 20.5 81.9997 20.5Z" fill="black" fill-opacity="0.5"/>
</svg>
