<svg width="28" height="28" viewBox="0 0 28 28" fill="none" xmlns="http://www.w3.org/2000/svg">
<path d="M24.5 0.5H3.5C1.835 0.5 0.5 1.835 0.5 3.5V9.5H3.5V3.5H24.5V24.5H3.5V18.5H0.5V24.5C0.5 25.2956 0.81607 26.0587 1.37868 26.6213C1.94129 27.1839 2.70435 27.5 3.5 27.5H24.5C25.2956 27.5 26.0587 27.1839 26.6213 26.6213C27.1839 26.0587 27.5 25.2956 27.5 24.5V3.5C27.5 1.835 26.15 0.5 24.5 0.5ZM11.12 19.37L13.25 21.5L20.75 14L13.25 6.5L11.12 8.615L15.005 12.5H0.5V15.5H15.005L11.12 19.37Z" fill="white"/>
</svg>
